# Blender 3.2.0
# www.blender.org
o Plane
v -3.500000 0.000000 3.000000
v 3.500000 0.000000 3.000000
v -3.500000 0.000000 -3.000000
v 3.500000 0.000000 -3.000000
v -3.500000 4.000000 3.000000
v 3.500000 4.000000 3.000000
v -3.500000 4.000000 -3.000000
v 3.500000 4.000000 -3.000000
v -1.500000 4.000000 -0.562500
v -1.500000 4.500000 -0.562500
v -1.500000 4.000000 -1.562500
v -1.500000 4.500000 -1.562500
v -0.500000 4.000000 -0.562500
v -0.500000 4.500000 -0.562500
v -0.500000 4.000000 -1.562500
v -0.500000 4.500000 -1.562500
v 0.125000 4.000000 0.187500
v 0.125000 4.812500 0.187500
v 0.125000 4.000000 -1.562500
v 0.125000 4.812500 -1.562500
v 0.812500 4.000000 0.187500
v 0.812500 4.812500 0.187500
v 0.812500 4.000000 -1.562500
v 0.812500 4.812500 -1.562500
v 1.375000 4.000000 0.187500
v 1.375000 4.812500 0.187500
v 1.375000 4.000000 -1.562500
v 1.375000 4.812500 -1.562500
v 2.062500 4.000000 0.187500
v 2.062500 4.812500 0.187500
v 2.062500 4.000000 -1.562500
v 2.062500 4.812500 -1.562500
vn -0.0000 1.0000 -0.0000
vn 1.0000 -0.0000 -0.0000
vn -1.0000 -0.0000 -0.0000
vn -0.0000 -0.0000 -1.0000
vn -0.0000 -0.0000 1.0000
vt 0.500000 0.000000
vt 0.769231 0.000000
vt 0.269231 0.000000
vt 1.000000 -0.000000
vt 0.000000 0.000000
vt 0.500000 0.400000
vt 0.769231 0.400000
vt 0.500000 1.000000
vt 0.269231 0.400000
vt 0.769231 1.000000
vt 1.000000 0.400000
vt 0.000000 0.400000
vt 0.153846 0.650000
vt 0.115385 0.650000
vt 0.153846 0.700000
vt 0.115385 0.700000
vt 0.115385 0.650000
vt 0.153846 0.650000
vt 0.115385 0.700000
vt 0.153846 0.700000
vt 0.115385 0.800000
vt 0.115385 0.650000
vt 0.153846 0.650000
vt 0.115385 0.700000
vt 0.153846 0.700000
vt 0.115385 0.650000
vt 0.153846 0.650000
vt 0.115385 0.700000
vt 0.153846 0.700000
vt 0.153846 0.800000
vt 0.093750 0.850000
vt 0.093750 0.931250
vt 0.026442 0.850000
vt 0.026442 0.931250
vt 0.120192 0.850000
vt 0.120192 0.931250
vt 0.093750 1.000000
vt -0.000000 0.850000
vt 0.187500 0.850000
vt -0.000000 0.931250
vt 0.187500 0.931250
vt 0.026442 1.000000
vt 0.093750 0.850000
vt 0.093750 0.931250
vt 0.026442 0.850000
vt 0.026442 0.931250
vt 0.117788 0.850000
vt 0.120192 0.850000
vt 0.117788 0.931250
vt 0.120192 0.931250
vt 0.093750 1.000000
vt 0.000000 0.850000
vt 0.187500 0.850000
vt 0.000000 0.931250
vt 0.187500 0.931250
vt 0.026442 1.000000
s 0
f 5/6/1 6/7/1 8/10/1 7/8/1
f 2/2/2 4/4/2 8/11/2 6/7/2
f 3/3/3 1/1/3 5/6/3 7/9/3
f 4/5/4 3/3/4 7/9/4 8/12/4
f 1/1/5 2/2/5 6/7/5 5/6/5
f 9/13/3 10/15/3 12/19/3 11/17/3
f 11/18/4 12/20/4 16/28/4 15/26/4
f 15/27/2 16/29/2 14/24/2 13/22/2
f 13/23/5 14/25/5 10/16/5 9/14/5
f 17/31/3 18/32/3 20/34/3 19/33/3
f 16/30/1 12/21/1 10/16/1 14/25/1
f 19/33/4 20/34/4 24/40/4 23/38/4
f 23/39/2 24/41/2 22/36/2 21/35/2
f 21/35/5 22/36/5 18/32/5 17/31/5
f 24/42/1 20/34/1 18/32/1 22/37/1
f 25/43/3 26/44/3 28/46/3 27/45/3
f 27/45/4 28/46/4 32/54/4 31/52/4
f 31/53/2 32/55/2 30/49/2 29/47/2
f 29/48/5 30/50/5 26/44/5 25/43/5
f 32/56/1 28/46/1 26/44/1 30/51/1
