# Blender 3.2.0
# www.blender.org
o Cube
v -0.500000 0.000000 0.500000
v -0.500000 1.000000 0.500000
v -0.500000 0.000000 -0.500000
v -0.500000 1.000000 -0.500000
v 0.500000 0.000000 0.500000
v 0.500000 1.000000 0.500000
v 0.500000 0.000000 -0.500000
v 0.500000 1.000000 -0.500000
vn -1.0000 -0.0000 -0.0000
vn -0.0000 -0.0000 -1.0000
vn 1.0000 -0.0000 -0.0000
vn -0.0000 -0.0000 1.0000
vn -0.0000 1.0000 -0.0000
vt 0.192308 0.600000
vt 0.153846 0.600000
vt 0.192308 0.700000
vt 0.153846 0.700000
vt 0.153846 0.600000
vt 0.192308 0.600000
vt 0.153846 0.700000
vt 0.192308 0.700000
vt 0.153846 0.800000
vt 0.153846 0.600000
vt 0.192308 0.600000
vt 0.153846 0.700000
vt 0.192308 0.700000
vt 0.153846 0.600000
vt 0.192308 0.600000
vt 0.153846 0.700000
vt 0.192308 0.700000
vt 0.192308 0.800000
s 0
f 1/1/1 2/3/1 4/7/1 3/5/1
f 3/6/2 4/8/2 8/16/2 7/14/2
f 7/15/3 8/17/3 6/12/3 5/10/3
f 5/11/4 6/13/4 2/4/4 1/2/4
f 8/18/5 4/9/5 2/4/5 6/13/5
