# Blender 3.2.0
# www.blender.org
o Van.378
v -2.881110 0.051622 -5.359959
v -3.266505 0.928077 -5.389435
v -3.071662 0.602477 -5.292189
v -2.785548 0.503956 -5.328436
v -3.787846 0.930448 -5.387609
v -4.113827 0.603204 -5.290498
v -4.559269 0.439337 -5.361284
v -4.589912 0.181828 -5.329859
v -4.463018 0.052408 -5.328798
v -3.168042 0.048819 -5.323482
v -4.081274 0.048523 -5.323043
v -2.849124 0.245626 -5.295532
v -4.081681 0.244182 -5.257275
v -3.167639 0.244311 -5.257803
v -3.821389 0.998709 -5.812500
v -4.184484 0.638394 -5.812500
v -4.655680 0.181554 -5.812500
v -4.529338 0.051737 -5.812500
v -2.877569 0.050090 -5.812500
v -2.781996 0.569288 -5.812500
v -3.200660 0.994232 -5.812500
v -4.624863 0.471673 -5.812500
v -3.002294 0.636754 -5.812500
v -3.098409 0.046084 -5.812500
v -4.119429 0.044692 -5.812500
v -2.844187 0.244791 -5.812500
v -2.881110 0.051622 -6.265041
v -3.266505 0.928077 -6.235565
v -3.071662 0.602477 -6.332811
v -2.785548 0.503956 -6.296564
v -3.787846 0.930448 -6.237391
v -4.113827 0.603204 -6.334502
v -4.559269 0.439337 -6.263716
v -4.589912 0.181828 -6.295141
v -4.463018 0.052408 -6.296202
v -3.168042 0.048819 -6.301518
v -4.081274 0.048523 -6.301957
v -2.849124 0.245626 -6.329468
v -4.081681 0.244182 -6.367725
v -3.167639 0.244311 -6.367197
v -3.218750 0.402951 -5.236024
v -3.395342 0.364092 -5.237795
v -3.042158 0.364092 -5.237795
v -3.218750 0.187500 -5.187500
v -3.218750 0.406250 -5.343750
v -3.040403 0.365847 -5.343750
v -3.218750 0.402951 -5.451476
v -3.397097 0.365847 -5.343750
v -3.437500 0.187500 -5.343750
v -3.395342 0.364092 -5.449705
v -3.434201 0.187500 -5.451476
v -3.395342 0.010908 -5.449705
v -3.218750 0.187500 -5.500000
v -3.003299 0.187500 -5.451476
v -3.218750 -0.027951 -5.451476
v -3.042158 0.010908 -5.449705
v -3.218750 -0.031250 -5.343750
v -3.040403 0.009153 -5.343750
v -3.397097 0.009153 -5.343750
v -3.218750 -0.027951 -5.236024
v -3.042158 0.010908 -5.237795
v -3.395342 0.010908 -5.237795
v -3.434201 0.187500 -5.236024
v -3.003299 0.187500 -5.236024
v -3.000000 0.187500 -5.343750
v -3.042158 0.364092 -5.449705
v -4.156250 0.402951 -5.236024
v -4.332842 0.364092 -5.237795
v -3.979658 0.364092 -5.237795
v -4.156250 0.187500 -5.187500
v -4.156250 0.406250 -5.343750
v -3.977903 0.365847 -5.343750
v -4.156250 0.402951 -5.451476
v -4.334598 0.365847 -5.343750
v -4.375000 0.187500 -5.343750
v -4.332842 0.364092 -5.449705
v -4.371701 0.187500 -5.451476
v -4.332842 0.010908 -5.449705
v -4.156250 0.187500 -5.500000
v -3.940799 0.187500 -5.451476
v -4.156250 -0.027951 -5.451476
v -3.979658 0.010908 -5.449705
v -4.156250 -0.031250 -5.343750
v -3.977903 0.009153 -5.343750
v -4.334598 0.009153 -5.343750
v -4.156250 -0.027951 -5.236024
v -3.979658 0.010908 -5.237795
v -4.332842 0.010908 -5.237795
v -4.371701 0.187500 -5.236024
v -3.940799 0.187500 -5.236024
v -3.937500 0.187500 -5.343750
v -3.979658 0.364092 -5.449705
v -3.218750 0.402951 -6.173524
v -3.395342 0.364092 -6.175295
v -3.042158 0.364092 -6.175295
v -3.218750 0.187500 -6.125000
v -3.218750 0.406250 -6.281250
v -3.040403 0.365847 -6.281250
v -3.218750 0.402951 -6.388976
v -3.397097 0.365847 -6.281250
v -3.437500 0.187500 -6.281250
v -3.395342 0.364092 -6.387205
v -3.434201 0.187500 -6.388976
v -3.395342 0.010908 -6.387205
v -3.218750 0.187500 -6.437500
v -3.003299 0.187500 -6.388976
v -3.218750 -0.027951 -6.388976
v -3.042158 0.010908 -6.387205
v -3.218750 -0.031250 -6.281250
v -3.040403 0.009153 -6.281250
v -3.397097 0.009153 -6.281250
v -3.218750 -0.027951 -6.173524
v -3.042158 0.010908 -6.175295
v -3.395342 0.010908 -6.175295
v -3.434201 0.187500 -6.173524
v -3.003299 0.187500 -6.173524
v -3.000000 0.187500 -6.281250
v -3.042158 0.364092 -6.387205
v -4.156250 0.402951 -6.173524
v -4.332842 0.364092 -6.175295
v -3.979658 0.364092 -6.175295
v -4.156250 0.187500 -6.125000
v -4.156250 0.406250 -6.281250
v -3.977903 0.365847 -6.281250
v -4.156250 0.402951 -6.388976
v -4.334598 0.365847 -6.281250
v -4.375000 0.187500 -6.281250
v -4.332842 0.364092 -6.387205
v -4.371701 0.187500 -6.388976
v -4.332842 0.010908 -6.387205
v -4.156250 0.187500 -6.437500
v -3.940799 0.187500 -6.388976
v -4.156250 -0.027951 -6.388976
v -3.979658 0.010908 -6.387205
v -4.156250 -0.031250 -6.281250
v -3.977903 0.009153 -6.281250
v -4.334598 0.009153 -6.281250
v -4.156250 -0.027951 -6.173524
v -3.979658 0.010908 -6.175295
v -4.332842 0.010908 -6.175295
v -4.371701 0.187500 -6.173524
v -3.940799 0.187500 -6.173524
v -3.937500 0.187500 -6.281250
v -3.979658 0.364092 -6.387205
v -3.729233 1.341940 -5.812500
v -3.500468 1.130389 -5.812500
v -3.549259 1.309556 -5.812500
v -3.748924 1.133130 -5.812500
v -3.710726 1.055474 -5.812500
v -3.799092 1.372904 -5.812500
v -3.703097 1.130851 -5.694743
v -3.806721 1.297526 -5.694743
v -3.683837 1.362821 -5.812500
v -3.825981 1.065557 -5.812500
v -3.728300 0.845245 -5.812500
v -3.569877 0.846576 -5.721281
v -3.517411 0.846981 -5.812500
v -3.730618 1.291422 -5.906737
v -3.558621 1.130812 -5.917404
v -3.679843 1.190953 -5.916846
v -3.703097 1.130851 -5.930257
v -3.820405 1.141114 -5.930257
v -3.689412 1.287263 -5.930257
v -3.681472 1.132080 -5.922575
v -3.736714 1.188118 -5.913439
v -3.584552 1.276055 -5.908288
v -3.806721 1.297526 -5.930257
v -3.675309 0.845709 -5.904025
v -3.569876 0.846575 -5.903719
v -3.681472 1.132079 -5.702425
v -3.730618 1.291422 -5.718263
v -3.558621 1.130812 -5.707595
v -3.736714 1.188118 -5.711561
v -3.584552 1.276055 -5.716711
v -3.679842 1.190953 -5.708154
v -3.820405 1.141114 -5.694743
v -3.689412 1.287263 -5.694743
v -3.675309 0.845709 -5.720975
vn 0.0607 0.0810 -0.9949
vn 0.0259 0.7947 -0.6064
vn 0.2904 0.7659 -0.5737
vn 0.7228 0.2600 -0.6403
vn 0.5288 -0.8487 -0.0000
vn 0.3751 -0.9270 -0.0000
vn 0.2642 -0.7634 -0.5894
vn 0.3290 -0.5406 -0.7743
vn 0.4217 0.9067 -0.0000
vn 0.9506 0.3103 -0.0000
vn -0.9819 0.1893 -0.0000
vn -0.6517 0.7585 -0.0000
vn -0.5662 0.6975 -0.4392
vn -0.6822 0.1893 -0.7062
vn -0.5081 -0.8613 -0.0000
vn -0.3565 -0.7293 -0.5840
vn 0.0069 1.0000 -0.0000
vn 0.7945 -0.6073 -0.0000
vn 0.6441 -0.5015 -0.5777
vn -0.6140 -0.7893 -0.0000
vn -0.3389 -0.4790 -0.8097
vn -0.8461 -0.5330 -0.0000
vn -0.7509 -0.3836 -0.5376
vn -0.0079 1.0000 -0.0000
vn -0.0413 0.8006 -0.5978
vn -0.0584 0.1199 -0.9911
vn 0.0607 0.0810 0.9949
vn 0.7228 0.2600 0.6403
vn 0.2904 0.7659 0.5737
vn 0.0259 0.7947 0.6064
vn 0.3290 -0.5406 0.7743
vn 0.2642 -0.7634 0.5894
vn -0.6822 0.1893 0.7062
vn -0.5662 0.6975 0.4392
vn -0.3565 -0.7293 0.5840
vn 0.6441 -0.5015 0.5777
vn -0.3389 -0.4790 0.8097
vn -0.7509 -0.3836 0.5376
vn -0.0413 0.8006 0.5978
vn -0.0584 0.1199 0.9911
vn 0.2180 -0.9756 -0.0249
vn 0.1396 -0.1396 -0.9803
vn -0.2180 -0.9756 -0.0249
vn -0.1396 -0.1396 -0.9803
vn -0.2180 -0.9756 0.0249
vn 0.2180 -0.9756 0.0249
vn 0.9756 -0.2180 -0.0249
vn 0.9756 -0.2180 0.0249
vn 0.1396 -0.1396 0.9803
vn 0.9756 0.2180 0.0249
vn 0.1396 0.1396 0.9803
vn -0.1396 0.1396 0.9803
vn -0.1396 -0.1396 0.9803
vn -0.2180 0.9756 0.0249
vn 0.2180 0.9756 0.0249
vn -0.2180 0.9756 -0.0249
vn 0.2180 0.9756 -0.0249
vn -0.1396 0.1396 -0.9803
vn 0.1396 0.1396 -0.9803
vn 0.9756 0.2180 -0.0249
vn -0.9756 0.2180 -0.0249
vn -0.9756 -0.2180 -0.0249
vn -0.9756 0.2180 0.0249
vn -0.9756 -0.2180 0.0249
vn 0.8500 -0.0743 -0.5216
vn -0.9962 0.0872 0.0088
vn -0.0733 -0.8378 -0.5410
vn -0.0000 -0.0000 -1.0000
vn 0.0733 0.8378 -0.5410
vn -0.8697 0.0550 -0.4905
vn -0.0238 0.0566 -0.9981
vn 0.8572 0.0565 -0.5119
vn -0.0152 0.8788 0.4769
vn -0.1294 -0.8974 0.4218
vn 0.0187 -0.0907 0.9957
vn -0.0333 -0.0764 0.9965
vn -0.8718 -0.2132 0.4411
vn 0.8500 -0.0743 0.5216
vn -0.9962 0.0872 -0.0088
vn -0.0733 -0.8378 0.5410
vn -0.0000 -0.0000 1.0000
vn 0.0733 0.8378 0.5410
vn -0.8697 0.0550 0.4905
vn -0.0238 0.0566 0.9981
vn 0.8572 0.0565 0.5119
vn 0.9962 -0.0872 -0.0000
vn -0.0152 0.8788 -0.4769
vn -0.1294 -0.8974 -0.4218
vn 0.0187 -0.0907 -0.9957
vn -0.0333 -0.0764 -0.9965
vn -0.8718 -0.2132 -0.4411
vt 0.882812 0.679688
vt 0.835938 0.679688
vt 0.757812 0.890625
vt 0.742188 0.890625
vt 0.843750 0.867188
vt 0.789062 0.812500
vt 0.914062 0.875000
vt 0.859375 0.789062
vt 0.875000 0.789062
vt 0.609375 0.890625
vt 0.617188 0.890625
vt 0.500000 0.867188
vt 0.539062 0.812500
vt 0.390625 0.882812
vt 0.414062 0.773438
vt 0.429688 0.773438
vt 0.421875 0.710938
vt 0.421875 0.679688
vt 0.453125 0.679688
vt 0.765625 0.679688
vt 0.546875 0.679688
vt 0.843750 0.726562
vt 0.867188 0.726562
vt 0.546875 0.726562
vt 0.765625 0.726562
vt 0.609375 0.992188
vt 0.484375 0.992188
vt 0.304688 0.710938
vt 0.304688 0.679688
vt 0.437500 0.562500
vt 0.992188 0.679688
vt 0.835938 0.562500
vt 0.914062 0.992188
vt 0.992188 0.804688
vt 0.757812 0.992188
vt 0.375000 0.992188
vt 0.304688 0.781250
vt 0.859375 0.992188
vt 0.781250 0.562500
vt 0.539062 0.562500
vt 0.992188 0.726562
vt 0.882812 0.679688
vt 0.835938 0.679688
vt 0.757812 0.890625
vt 0.742188 0.890625
vt 0.843750 0.867188
vt 0.789062 0.812500
vt 0.914062 0.875000
vt 0.859375 0.789062
vt 0.875000 0.789062
vt 0.609375 0.890625
vt 0.617188 0.890625
vt 0.500000 0.867188
vt 0.539062 0.812500
vt 0.390625 0.882812
vt 0.414062 0.773438
vt 0.429688 0.773438
vt 0.421875 0.710938
vt 0.421875 0.679688
vt 0.453125 0.679688
vt 0.765625 0.679688
vt 0.546875 0.679688
vt 0.843750 0.726562
vt 0.867188 0.726562
vt 0.546875 0.726562
vt 0.765625 0.726562
vt 0.875000 0.585938
vt 0.921875 0.632812
vt 0.882812 0.625000
vt 0.875000 0.546875
vt 0.960938 0.625000
vt 0.875000 0.625000
vt 0.921875 0.585938
vt 0.851562 0.585938
vt 0.851562 0.625000
vt 0.875000 0.585938
vt 0.921875 0.632812
vt 0.851562 0.546875
vt 0.851562 0.664062
vt 0.875000 0.546875
vt 0.882812 0.625000
vt 0.875000 0.664062
vt 0.875000 0.585938
vt 0.882812 0.546875
vt 0.875000 0.625000
vt 0.921875 0.585938
vt 0.968750 0.585938
vt 0.875000 0.507812
vt 0.875000 0.664062
vt 0.921875 0.539062
vt 0.875000 0.585938
vt 0.960938 0.546875
vt 0.875000 0.546875
vt 0.851562 0.585938
vt 0.851562 0.546875
vt 0.851562 0.625000
vt 0.875000 0.585938
vt 0.921875 0.539062
vt 0.960938 0.546875
vt 0.875000 0.546875
vt 0.882812 0.546875
vt 0.875000 0.625000
vt 0.875000 0.585938
vt 0.875000 0.664062
vt 0.968750 0.585938
vt 0.875000 0.507812
vt 0.875000 0.664062
vt 0.851562 0.507812
vt 0.851562 0.664062
vt 0.960938 0.625000
vt 0.875000 0.625000
vt 0.875000 0.585938
vt 0.921875 0.632812
vt 0.882812 0.625000
vt 0.875000 0.546875
vt 0.960938 0.625000
vt 0.875000 0.625000
vt 0.921875 0.585938
vt 0.851562 0.585938
vt 0.851562 0.625000
vt 0.875000 0.585938
vt 0.921875 0.632812
vt 0.851562 0.546875
vt 0.851562 0.664062
vt 0.875000 0.546875
vt 0.882812 0.625000
vt 0.875000 0.664062
vt 0.875000 0.585938
vt 0.882812 0.546875
vt 0.875000 0.625000
vt 0.921875 0.585938
vt 0.968750 0.585938
vt 0.875000 0.507812
vt 0.875000 0.664062
vt 0.921875 0.539062
vt 0.875000 0.585938
vt 0.960938 0.546875
vt 0.875000 0.546875
vt 0.851562 0.585938
vt 0.851562 0.546875
vt 0.851562 0.625000
vt 0.875000 0.585938
vt 0.921875 0.539062
vt 0.960938 0.546875
vt 0.875000 0.546875
vt 0.882812 0.546875
vt 0.875000 0.625000
vt 0.875000 0.585938
vt 0.875000 0.664062
vt 0.968750 0.585938
vt 0.875000 0.507812
vt 0.875000 0.664062
vt 0.851562 0.507812
vt 0.851562 0.664062
vt 0.960938 0.625000
vt 0.875000 0.625000
vt 0.875000 0.585938
vt 0.921875 0.632812
vt 0.882812 0.625000
vt 0.875000 0.546875
vt 0.960938 0.625000
vt 0.875000 0.625000
vt 0.921875 0.585938
vt 0.851562 0.585938
vt 0.851562 0.625000
vt 0.875000 0.585938
vt 0.921875 0.632812
vt 0.851562 0.546875
vt 0.851562 0.664062
vt 0.875000 0.546875
vt 0.882812 0.625000
vt 0.875000 0.664062
vt 0.875000 0.585938
vt 0.882812 0.546875
vt 0.875000 0.625000
vt 0.921875 0.585938
vt 0.968750 0.585938
vt 0.875000 0.507812
vt 0.875000 0.664062
vt 0.921875 0.539062
vt 0.875000 0.585938
vt 0.960938 0.546875
vt 0.875000 0.546875
vt 0.851562 0.585938
vt 0.851562 0.546875
vt 0.851562 0.625000
vt 0.875000 0.585938
vt 0.921875 0.539062
vt 0.960938 0.546875
vt 0.875000 0.546875
vt 0.882812 0.546875
vt 0.875000 0.625000
vt 0.875000 0.585938
vt 0.875000 0.664062
vt 0.968750 0.585938
vt 0.875000 0.507812
vt 0.875000 0.664062
vt 0.851562 0.507812
vt 0.851562 0.664062
vt 0.960938 0.625000
vt 0.875000 0.625000
vt 0.875000 0.585938
vt 0.921875 0.632812
vt 0.882812 0.625000
vt 0.875000 0.546875
vt 0.960938 0.625000
vt 0.875000 0.625000
vt 0.921875 0.585938
vt 0.851562 0.585938
vt 0.851562 0.625000
vt 0.875000 0.585938
vt 0.921875 0.632812
vt 0.851562 0.546875
vt 0.851562 0.664062
vt 0.875000 0.546875
vt 0.882812 0.625000
vt 0.875000 0.664062
vt 0.875000 0.585938
vt 0.882812 0.546875
vt 0.875000 0.625000
vt 0.921875 0.585938
vt 0.968750 0.585938
vt 0.875000 0.507812
vt 0.875000 0.664062
vt 0.921875 0.539062
vt 0.875000 0.585938
vt 0.960938 0.546875
vt 0.875000 0.546875
vt 0.851562 0.585938
vt 0.851562 0.546875
vt 0.851562 0.625000
vt 0.875000 0.585938
vt 0.921875 0.539062
vt 0.960938 0.546875
vt 0.875000 0.546875
vt 0.882812 0.546875
vt 0.875000 0.625000
vt 0.875000 0.585938
vt 0.875000 0.664062
vt 0.968750 0.585938
vt 0.875000 0.507812
vt 0.875000 0.664062
vt 0.851562 0.507812
vt 0.851562 0.664062
vt 0.960938 0.625000
vt 0.875000 0.625000
vt 0.484375 0.820312
vt 0.414062 0.796875
vt 0.453125 0.796875
vt 0.414062 0.867188
vt 0.414062 0.851562
vt 0.367187 0.896395
vt 0.343661 0.881556
vt 0.325760 0.968640
vt 0.343750 0.911960
vt 0.345023 0.911960
vt 0.345023 0.912769
vt 0.324398 0.945134
vt 0.367188 0.958657
vt 0.349108 0.967697
vt 0.320312 0.882812
vt 0.351562 0.867188
vt 0.351562 0.820312
vt 0.351562 0.796875
vt 0.468750 0.843750
vt 0.445312 0.851562
vt 0.414062 0.820312
vt 0.421875 0.843750
vt 0.343750 0.911960
vt 0.345023 0.911960
vt 0.345023 0.912769
vt 0.321674 0.914026
vt 0.343750 0.943091
vt 0.347746 0.944288
vt 0.347746 0.943091
vt 0.414062 0.843750
vt 0.421875 0.851562
vt 0.445312 0.828125
vt 0.445312 0.820312
vt 0.324398 0.945134
vt 0.351562 0.843750
vt 0.351562 0.820312
vt 0.414062 0.843750
vt 0.468750 0.843750
vt 0.445312 0.851562
vt 0.414062 0.820312
vt 0.421875 0.851562
vt 0.445312 0.828125
vt 0.445312 0.820312
vt 0.421875 0.843750
vt 0.321674 0.914003
vt 0.343750 0.943091
vt 0.347746 0.944287
vt 0.347746 0.943091
vt 0.351562 0.843750
s 1
f 13/24/1 11/21/2 9/19/3 8/17/4
f 16/27/5 15/26/6 5/10/7 6/12/8
f 18/29/9 17/28/10 8/17/4 9/18/3
f 26/41/11 19/31/12 1/1/13 12/23/14
f 15/26/6 21/35/15 2/4/16 5/11/7
f 25/40/17 18/30/9 9/19/3 11/21/2
f 22/36/18 16/27/5 6/12/8 7/14/19
f 21/35/15 23/38/20 3/5/21 2/3/16
f 17/28/10 22/37/18 7/15/19 8/17/4
f 23/38/20 20/33/22 4/7/23 3/5/21
f 19/32/12 24/39/24 10/20/25 1/2/13
f 24/39/24 25/40/17 11/21/2 10/20/25
f 14/25/26 3/6/21 4/8/23 12/22/14
f 13/24/1 14/25/26 10/20/25 11/21/2
f 5/11/7 2/4/16 3/6/21 6/13/8
f 6/13/8 3/6/21 14/25/26 13/24/1
f 10/20/25 14/25/26 12/22/14 1/2/13
f 20/34/22 26/41/11 12/23/14 4/9/23
f 6/13/8 13/24/1 8/17/4 7/16/19
f 39/65/27 34/58/28 35/60/29 37/62/30
f 16/27/5 32/53/31 31/51/32 15/26/6
f 18/29/9 35/59/29 34/58/28 17/28/10
f 26/41/11 38/64/33 27/42/34 19/31/12
f 15/26/6 31/52/32 28/45/35 21/35/15
f 25/40/17 37/62/30 35/60/29 18/30/9
f 22/36/18 33/55/36 32/53/31 16/27/5
f 21/35/15 28/44/35 29/46/37 23/38/20
f 17/28/10 34/58/28 33/56/36 22/37/18
f 23/38/20 29/46/37 30/48/38 20/33/22
f 19/32/12 27/43/34 36/61/39 24/39/24
f 24/39/24 36/61/39 37/62/30 25/40/17
f 40/66/40 38/63/33 30/49/38 29/47/37
f 39/65/27 37/62/30 36/61/39 40/66/40
f 31/52/32 32/54/31 29/47/37 28/45/35
f 32/54/31 39/65/27 40/66/40 29/47/37
f 36/61/39 27/43/34 38/63/33 40/66/40
f 20/34/22 30/50/38 38/64/33 26/41/11
f 32/54/31 33/57/36 34/58/28 39/65/27
s 0
f 41/67/41 42/70/41 48/78/41 45/74/41
f 42/69/42 41/68/42 44/73/42 63/103/42
f 43/72/43 41/67/43 45/74/43 46/75/43
f 41/68/44 43/71/44 64/105/44 44/73/44
f 66/111/45 46/75/45 45/74/45 47/76/45
f 47/76/46 45/74/46 48/78/46 50/80/46
f 42/70/47 63/104/47 49/79/47 48/78/47
f 50/80/48 48/78/48 49/79/48 51/82/48
f 50/81/49 51/83/49 53/86/49 47/77/49
f 51/82/50 49/79/50 59/96/50 52/85/50
f 51/83/51 52/84/51 55/90/51 53/86/51
f 53/86/52 55/90/52 56/92/52 54/87/52
f 47/77/53 53/86/53 54/87/53 66/110/53
f 55/91/54 57/94/54 58/95/54 56/93/54
f 52/85/55 59/96/55 57/94/55 55/91/55
f 60/97/56 61/100/56 58/95/56 57/94/56
f 62/102/57 60/97/57 57/94/57 59/96/57
f 44/73/58 64/105/58 61/99/58 60/98/58
f 63/103/59 44/73/59 60/98/59 62/101/59
f 63/104/60 62/102/60 59/96/60 49/79/60
f 61/100/61 64/106/61 65/108/61 58/95/61
f 64/107/62 43/72/62 46/75/62 65/109/62
f 56/93/63 58/95/63 65/108/63 54/88/63
f 54/89/64 65/109/64 46/75/64 66/111/64
f 67/112/41 68/115/41 74/123/41 71/119/41
f 68/114/42 67/113/42 70/118/42 89/148/42
f 69/117/43 67/112/43 71/119/43 72/120/43
f 67/113/44 69/116/44 90/150/44 70/118/44
f 92/156/45 72/120/45 71/119/45 73/121/45
f 73/121/46 71/119/46 74/123/46 76/125/46
f 68/115/47 89/149/47 75/124/47 74/123/47
f 76/125/48 74/123/48 75/124/48 77/127/48
f 76/126/49 77/128/49 79/131/49 73/122/49
f 77/127/50 75/124/50 85/141/50 78/130/50
f 77/128/51 78/129/51 81/135/51 79/131/51
f 79/131/52 81/135/52 82/137/52 80/132/52
f 73/122/53 79/131/53 80/132/53 92/155/53
f 81/136/54 83/139/54 84/140/54 82/138/54
f 78/130/55 85/141/55 83/139/55 81/136/55
f 86/142/56 87/145/56 84/140/56 83/139/56
f 88/147/57 86/142/57 83/139/57 85/141/57
f 70/118/58 90/150/58 87/144/58 86/143/58
f 89/148/59 70/118/59 86/143/59 88/146/59
f 89/149/60 88/147/60 85/141/60 75/124/60
f 87/145/61 90/151/61 91/153/61 84/140/61
f 90/152/62 69/117/62 72/120/62 91/154/62
f 82/138/63 84/140/63 91/153/63 80/133/63
f 80/134/64 91/154/64 72/120/64 92/156/64
f 93/157/41 94/160/41 100/168/41 97/164/41
f 94/159/42 93/158/42 96/163/42 115/193/42
f 95/162/43 93/157/43 97/164/43 98/165/43
f 93/158/44 95/161/44 116/195/44 96/163/44
f 118/201/45 98/165/45 97/164/45 99/166/45
f 99/166/46 97/164/46 100/168/46 102/170/46
f 94/160/47 115/194/47 101/169/47 100/168/47
f 102/170/48 100/168/48 101/169/48 103/172/48
f 102/171/49 103/173/49 105/176/49 99/167/49
f 103/172/50 101/169/50 111/186/50 104/175/50
f 103/173/51 104/174/51 107/180/51 105/176/51
f 105/176/52 107/180/52 108/182/52 106/177/52
f 99/167/53 105/176/53 106/177/53 118/200/53
f 107/181/54 109/184/54 110/185/54 108/183/54
f 104/175/55 111/186/55 109/184/55 107/181/55
f 112/187/56 113/190/56 110/185/56 109/184/56
f 114/192/57 112/187/57 109/184/57 111/186/57
f 96/163/58 116/195/58 113/189/58 112/188/58
f 115/193/59 96/163/59 112/188/59 114/191/59
f 115/194/60 114/192/60 111/186/60 101/169/60
f 113/190/61 116/196/61 117/198/61 110/185/61
f 116/197/62 95/162/62 98/165/62 117/199/62
f 108/183/63 110/185/63 117/198/63 106/178/63
f 106/179/64 117/199/64 98/165/64 118/201/64
f 119/202/41 120/205/41 126/213/41 123/209/41
f 120/204/42 119/203/42 122/208/42 141/238/42
f 121/207/43 119/202/43 123/209/43 124/210/43
f 119/203/44 121/206/44 142/240/44 122/208/44
f 144/246/45 124/210/45 123/209/45 125/211/45
f 125/211/46 123/209/46 126/213/46 128/215/46
f 120/205/47 141/239/47 127/214/47 126/213/47
f 128/215/48 126/213/48 127/214/48 129/217/48
f 128/216/49 129/218/49 131/221/49 125/212/49
f 129/217/50 127/214/50 137/231/50 130/220/50
f 129/218/51 130/219/51 133/225/51 131/221/51
f 131/221/52 133/225/52 134/227/52 132/222/52
f 125/212/53 131/221/53 132/222/53 144/245/53
f 133/226/54 135/229/54 136/230/54 134/228/54
f 130/220/55 137/231/55 135/229/55 133/226/55
f 138/232/56 139/235/56 136/230/56 135/229/56
f 140/237/57 138/232/57 135/229/57 137/231/57
f 122/208/58 142/240/58 139/234/58 138/233/58
f 141/238/59 122/208/59 138/233/59 140/236/59
f 141/239/60 140/237/60 137/231/60 127/214/60
f 139/235/61 142/241/61 143/243/61 136/230/61
f 142/242/62 121/207/62 124/210/62 143/244/62
f 134/228/63 136/230/63 143/243/63 132/223/63
f 132/224/64 143/244/64 124/210/64 144/246/64
f 148/251/65 175/290/65 170/283/65
f 177/292/66 153/259/66 149/252/66 151/255/66
f 150/254/67 153/260/67 177/293/67 152/258/67
f 152/258/68 177/294/68 151/256/68 176/291/68
f 176/291/69 151/257/69 149/253/69 154/261/69
f 146/248/70 157/264/70 156/263/70 172/286/70
f 172/286/71 156/263/71 178/295/71 170/283/71
f 170/283/72 178/295/72 155/262/72 148/250/72
f 165/277/73 148/251/73 160/268/73
f 145/247/74 158/265/74 166/279/74 147/249/74
f 158/266/75 165/277/75 160/268/75 166/278/75
f 159/267/76 166/278/76 160/268/76 164/276/76
f 146/248/77 147/249/77 166/279/77 159/267/77
f 148/251/78 164/276/78 160/268/78
f 163/273/79 161/269/79 149/252/79 153/259/79
f 150/254/80 167/280/80 163/274/80 153/260/80
f 167/280/81 162/272/81 161/270/81 163/275/81
f 162/272/82 154/261/82 149/253/82 161/271/82
f 146/248/83 159/267/83 169/282/83 157/264/83
f 159/267/84 164/276/84 168/281/84 169/282/84
f 164/276/85 148/250/85 155/262/85 168/281/85
f 152/258/86 176/291/86 154/261/86 162/272/86 167/280/86 150/254/86
f 173/287/87 175/290/87 148/251/87
f 145/247/88 147/249/88 174/289/88 171/284/88
f 171/285/89 174/288/89 175/290/89 173/287/89
f 172/286/90 170/283/90 175/290/90 174/288/90
f 146/248/91 172/286/91 174/289/91 147/249/91
