# Blender 3.2.0
# www.blender.org
o Van.391
v -3.243750 0.390451 -6.892274
v -3.420342 0.351592 -6.894045
v -3.067158 0.351592 -6.894045
v -3.243750 0.175000 -6.843750
v -3.243750 0.393750 -7.000000
v -3.065403 0.353347 -7.000000
v -3.243750 0.390451 -7.107726
v -3.422097 0.353347 -7.000000
v -3.462500 0.175000 -7.000000
v -3.420342 0.351592 -7.105955
v -3.459201 0.175000 -7.107726
v -3.420342 -0.001592 -7.105955
v -3.243750 0.175000 -7.156250
v -3.028299 0.175000 -7.107726
v -3.243750 -0.040451 -7.107726
v -3.067158 -0.001592 -7.105955
v -3.243750 -0.043750 -7.000000
v -3.065403 -0.003347 -7.000000
v -3.422097 -0.003347 -7.000000
v -3.243750 -0.040451 -6.892274
v -3.067158 -0.001592 -6.894045
v -3.420342 -0.001592 -6.894045
v -3.459201 0.175000 -6.892274
v -3.028299 0.175000 -6.892274
v -3.025000 0.175000 -7.000000
v -3.067158 0.351592 -7.105955
v -4.743610 0.521704 -7.468750
v -2.870619 0.101855 -7.468750
v -4.710742 0.102165 -7.468750
v -4.455050 1.007751 -7.468750
v -2.837649 0.521800 -7.468750
v -2.971126 1.196558 -7.468750
v -4.260369 1.201465 -7.468750
v -4.739972 0.521358 -6.954085
v -2.904576 0.102478 -7.049669
v -4.708084 0.103096 -7.018284
v -4.452907 0.941361 -6.984512
v -2.872558 0.521537 -6.985312
v -3.004010 1.131586 -6.986896
v -4.259124 1.134929 -6.984600
v -4.395690 0.065414 -7.468750
v -3.028126 0.067626 -7.468750
v -4.391012 0.068164 -6.982401
v -3.031988 0.069497 -6.984195
v -3.031233 0.521842 -6.919030
v -4.391881 0.522220 -6.916776
v -4.739972 0.521358 -7.983415
v -2.904576 0.102478 -7.887831
v -4.708084 0.103096 -7.919216
v -4.452907 0.941361 -7.952988
v -2.872558 0.521537 -7.952188
v -3.004010 1.131586 -7.950604
v -4.259124 1.134929 -7.952900
v -4.391012 0.068164 -7.955099
v -3.031988 0.069497 -7.953305
v -3.031233 0.521842 -8.018471
v -4.391881 0.522220 -8.020724
v -4.394782 0.064148 -7.940034
v -4.339402 0.091908 -7.938790
v -3.086792 0.074705 -7.938470
v -3.050583 0.111760 -7.941192
v -4.339212 0.071158 -6.998505
v -4.339402 0.091908 -6.998710
v -3.062822 0.051029 -6.995522
v -3.050583 0.111760 -6.996308
v -3.243750 0.390451 -7.829774
v -3.420342 0.351592 -7.831545
v -3.067158 0.351592 -7.831545
v -3.243750 0.175000 -7.781250
v -3.243750 0.393750 -7.937500
v -3.065403 0.353347 -7.937500
v -3.243750 0.390451 -8.045225
v -3.422097 0.353347 -7.937500
v -3.462500 0.175000 -7.937500
v -3.420342 0.351592 -8.043455
v -3.459201 0.175000 -8.045225
v -3.420342 -0.001592 -8.043455
v -3.243750 0.175000 -8.093750
v -3.028299 0.175000 -8.045225
v -3.243750 -0.040451 -8.045225
v -3.067158 -0.001592 -8.043455
v -3.243750 -0.043750 -7.937500
v -3.065403 -0.003347 -7.937500
v -3.422097 -0.003347 -7.937500
v -3.243750 -0.040451 -7.829774
v -3.067158 -0.001592 -7.831545
v -3.420342 -0.001592 -7.831545
v -3.459201 0.175000 -7.829774
v -3.028299 0.175000 -7.829774
v -3.025000 0.175000 -7.937500
v -3.067158 0.351592 -8.043455
v -4.306250 0.390451 -7.829774
v -4.482842 0.351592 -7.831545
v -4.129658 0.351592 -7.831545
v -4.306250 0.175000 -7.781250
v -4.306251 0.393750 -7.937500
v -4.127903 0.353347 -7.937500
v -4.306250 0.390451 -8.045225
v -4.484597 0.353347 -7.937500
v -4.525001 0.175000 -7.937500
v -4.482842 0.351592 -8.043455
v -4.521701 0.175000 -8.045225
v -4.482842 -0.001592 -8.043455
v -4.306250 0.175000 -8.093750
v -4.090799 0.175000 -8.045225
v -4.306250 -0.040451 -8.045225
v -4.129658 -0.001592 -8.043455
v -4.306251 -0.043750 -7.937500
v -4.127903 -0.003347 -7.937500
v -4.484597 -0.003347 -7.937500
v -4.306250 -0.040451 -7.829774
v -4.129658 -0.001592 -7.831545
v -4.482842 -0.001592 -7.831545
v -4.521701 0.175000 -7.829774
v -4.090799 0.175000 -7.829774
v -4.087501 0.175000 -7.937500
v -4.129658 0.351592 -8.043455
v -4.306250 0.390451 -6.892274
v -4.482842 0.351592 -6.894045
v -4.129658 0.351592 -6.894045
v -4.306250 0.175000 -6.843750
v -4.306251 0.393750 -7.000000
v -4.127903 0.353347 -7.000000
v -4.306250 0.390451 -7.107726
v -4.484597 0.353347 -7.000000
v -4.525001 0.175000 -7.000000
v -4.482842 0.351592 -7.105955
v -4.521701 0.175000 -7.107726
v -4.482842 -0.001592 -7.105955
v -4.306250 0.175000 -7.156250
v -4.090799 0.175000 -7.107726
v -4.306250 -0.040451 -7.107726
v -4.129658 -0.001592 -7.105955
v -4.306251 -0.043750 -7.000000
v -4.127903 -0.003347 -7.000000
v -4.484597 -0.003347 -7.000000
v -4.306250 -0.040451 -6.892274
v -4.129658 -0.001592 -6.894045
v -4.482842 -0.001592 -6.894045
v -4.521701 0.175000 -6.892274
v -4.090799 0.175000 -6.892274
v -4.087501 0.175000 -7.000000
v -4.129658 0.351592 -7.105955
vn 0.2180 -0.9756 -0.0249
vn 0.1396 -0.1396 -0.9803
vn -0.2180 -0.9756 -0.0249
vn -0.1396 -0.1396 -0.9803
vn -0.2180 -0.9756 0.0249
vn 0.2180 -0.9756 0.0249
vn 0.9756 -0.2180 -0.0249
vn 0.9756 -0.2180 0.0249
vn 0.1396 -0.1396 0.9803
vn 0.9756 0.2180 0.0249
vn 0.1396 0.1396 0.9803
vn -0.1396 0.1396 0.9803
vn -0.1396 -0.1396 0.9803
vn -0.2180 0.9756 0.0249
vn 0.2180 0.9756 0.0249
vn -0.2180 0.9756 -0.0249
vn 0.2180 0.9756 -0.0249
vn -0.1396 0.1396 -0.9803
vn 0.1396 0.1396 -0.9803
vn 0.9756 0.2180 -0.0249
vn -0.9756 0.2180 -0.0249
vn -0.9756 -0.2180 -0.0249
vn -0.9756 0.2180 0.0249
vn -0.9756 -0.2180 0.0249
vn 0.1157 0.1505 -0.9818
vn 0.9970 0.0776 -0.0066
vn -0.9937 0.0828 -0.0759
vn -0.0033 -0.9908 -0.1350
vn 0.7025 -0.7047 -0.0992
vn 0.1129 0.9936 -0.0048
vn -0.9761 -0.2014 -0.0822
vn 0.8427 -0.5368 -0.0407
vn -0.2323 0.9726 -0.0124
vn -0.0013 1.0000 -0.0048
vn -0.0015 0.1428 -0.9897
vn -0.4276 0.1486 -0.8917
vn -0.3842 -0.0852 -0.9193
vn -0.0019 -0.1101 -0.9939
vn 0.1058 -0.1436 -0.9840
vn 0.1378 -0.1384 -0.9807
vn 0.1157 0.1505 0.9818
vn 0.9970 0.0776 0.0066
vn -0.9937 0.0828 0.0759
vn -0.0033 -0.9908 0.1350
vn 0.7025 -0.7047 0.0992
vn 0.1129 0.9936 0.0048
vn -0.9761 -0.2014 0.0822
vn 0.8427 -0.5368 0.0407
vn -0.2323 0.9726 0.0124
vn -0.0013 1.0000 0.0048
vn -0.0015 0.1428 0.9897
vn -0.4276 0.1486 0.8917
vn -0.3842 -0.0852 0.9193
vn -0.0019 -0.1101 0.9939
vn 0.1058 -0.1436 0.9840
vn 0.1378 -0.1384 0.9807
vt 0.875000 0.585938
vt 0.921875 0.632812
vt 0.882812 0.625000
vt 0.875000 0.546875
vt 0.960938 0.625000
vt 0.875000 0.625000
vt 0.921875 0.585938
vt 0.851562 0.585938
vt 0.851562 0.625000
vt 0.875000 0.585938
vt 0.921875 0.632812
vt 0.851562 0.546875
vt 0.851562 0.664062
vt 0.875000 0.546875
vt 0.882812 0.625000
vt 0.875000 0.664062
vt 0.875000 0.585938
vt 0.882812 0.546875
vt 0.875000 0.625000
vt 0.921875 0.585938
vt 0.968750 0.585938
vt 0.875000 0.507812
vt 0.875000 0.664062
vt 0.921875 0.539062
vt 0.875000 0.585938
vt 0.960938 0.546875
vt 0.875000 0.546875
vt 0.851562 0.585938
vt 0.851562 0.546875
vt 0.851562 0.625000
vt 0.875000 0.585938
vt 0.921875 0.539062
vt 0.960938 0.546875
vt 0.875000 0.546875
vt 0.882812 0.546875
vt 0.875000 0.625000
vt 0.875000 0.585938
vt 0.875000 0.664062
vt 0.968750 0.585938
vt 0.875000 0.507812
vt 0.875000 0.664062
vt 0.851562 0.507812
vt 0.851562 0.664062
vt 0.960938 0.625000
vt 0.875000 0.625000
vt 0.007812 0.234375
vt 0.007812 0.230448
vt 0.703125 0.132812
vt 0.585938 0.007812
vt 0.007812 0.132812
vt 0.140625 0.007812
vt 0.007812 0.363530
vt 0.703125 0.234375
vt 0.562500 0.500000
vt 0.703125 0.398438
vt 0.250000 0.500000
vt 0.007812 0.433986
vt 0.132812 0.230448
vt 0.132812 0.234375
vt 0.601562 0.132812
vt 0.578125 0.109375
vt 0.578125 0.132812
vt 0.140625 0.132812
vt 0.117188 0.132812
vt 0.140625 0.117188
vt 0.125000 0.355702
vt 0.203125 0.335938
vt 0.585938 0.234375
vt 0.585938 0.382812
vt 0.554688 0.382812
vt 0.125000 0.418329
vt 0.250000 0.382812
vt 0.218750 0.007812
vt 0.546875 0.007812
vt 0.218750 0.125000
vt 0.546875 0.125000
vt 0.546875 0.234375
vt 0.218750 0.234375
vt 0.132812 0.230448
vt 0.132812 0.234375
vt 0.601562 0.132812
vt 0.578125 0.109375
vt 0.578125 0.132812
vt 0.140625 0.132812
vt 0.117188 0.132812
vt 0.140625 0.117188
vt 0.125000 0.355702
vt 0.203125 0.335938
vt 0.585938 0.234375
vt 0.585938 0.382812
vt 0.554688 0.382812
vt 0.125000 0.418329
vt 0.250000 0.382812
vt 0.218750 0.125000
vt 0.546875 0.125000
vt 0.546875 0.234375
vt 0.218750 0.234375
vt 0.875000 0.585938
vt 0.921875 0.632812
vt 0.882812 0.625000
vt 0.875000 0.546875
vt 0.960938 0.625000
vt 0.875000 0.625000
vt 0.921875 0.585938
vt 0.851562 0.585938
vt 0.851562 0.625000
vt 0.875000 0.585938
vt 0.921875 0.632812
vt 0.851562 0.546875
vt 0.851562 0.664062
vt 0.875000 0.546875
vt 0.882812 0.625000
vt 0.875000 0.664062
vt 0.875000 0.585938
vt 0.882812 0.546875
vt 0.875000 0.625000
vt 0.921875 0.585938
vt 0.968750 0.585938
vt 0.875000 0.507812
vt 0.875000 0.664062
vt 0.921875 0.539062
vt 0.875000 0.585938
vt 0.960938 0.546875
vt 0.875000 0.546875
vt 0.851562 0.585938
vt 0.851562 0.546875
vt 0.851562 0.625000
vt 0.875000 0.585938
vt 0.921875 0.539062
vt 0.960938 0.546875
vt 0.875000 0.546875
vt 0.882812 0.546875
vt 0.875000 0.625000
vt 0.875000 0.585938
vt 0.875000 0.664062
vt 0.968750 0.585938
vt 0.875000 0.507812
vt 0.875000 0.664062
vt 0.851562 0.507812
vt 0.851562 0.664062
vt 0.960938 0.625000
vt 0.875000 0.625000
vt 0.875000 0.585938
vt 0.921875 0.632812
vt 0.882812 0.625000
vt 0.875000 0.546875
vt 0.960938 0.625000
vt 0.875000 0.625000
vt 0.921875 0.585938
vt 0.851562 0.585938
vt 0.851562 0.625000
vt 0.875000 0.585938
vt 0.921875 0.632812
vt 0.851562 0.546875
vt 0.851562 0.664062
vt 0.875000 0.546875
vt 0.882812 0.625000
vt 0.875000 0.664062
vt 0.875000 0.585938
vt 0.882812 0.546875
vt 0.875000 0.625000
vt 0.921875 0.585938
vt 0.968750 0.585938
vt 0.875000 0.507812
vt 0.875000 0.664062
vt 0.921875 0.539062
vt 0.875000 0.585938
vt 0.960938 0.546875
vt 0.875000 0.546875
vt 0.851562 0.585938
vt 0.851562 0.546875
vt 0.851562 0.625000
vt 0.875000 0.585938
vt 0.921875 0.539062
vt 0.960938 0.546875
vt 0.875000 0.546875
vt 0.882812 0.546875
vt 0.875000 0.625000
vt 0.875000 0.585938
vt 0.875000 0.664062
vt 0.968750 0.585938
vt 0.875000 0.507812
vt 0.875000 0.664062
vt 0.851562 0.507812
vt 0.851562 0.664062
vt 0.960938 0.625000
vt 0.875000 0.625000
vt 0.875000 0.585938
vt 0.921875 0.632812
vt 0.882812 0.625000
vt 0.875000 0.546875
vt 0.960938 0.625000
vt 0.875000 0.625000
vt 0.921875 0.585938
vt 0.851562 0.585938
vt 0.851562 0.625000
vt 0.875000 0.585938
vt 0.921875 0.632812
vt 0.851562 0.546875
vt 0.851562 0.664062
vt 0.875000 0.546875
vt 0.882812 0.625000
vt 0.875000 0.664062
vt 0.875000 0.585938
vt 0.882812 0.546875
vt 0.875000 0.625000
vt 0.921875 0.585938
vt 0.968750 0.585938
vt 0.875000 0.507812
vt 0.875000 0.664062
vt 0.921875 0.539062
vt 0.875000 0.585938
vt 0.960938 0.546875
vt 0.875000 0.546875
vt 0.851562 0.585938
vt 0.851562 0.546875
vt 0.851562 0.625000
vt 0.875000 0.585938
vt 0.921875 0.539062
vt 0.960938 0.546875
vt 0.875000 0.546875
vt 0.882812 0.546875
vt 0.875000 0.625000
vt 0.875000 0.585938
vt 0.875000 0.664062
vt 0.968750 0.585938
vt 0.875000 0.507812
vt 0.875000 0.664062
vt 0.851562 0.507812
vt 0.851562 0.664062
vt 0.960938 0.625000
vt 0.875000 0.625000
s 0
f 1/1/1 2/4/1 8/12/1 5/8/1
f 2/3/2 1/2/2 4/7/2 23/37/2
f 3/6/3 1/1/3 5/8/3 6/9/3
f 1/2/4 3/5/4 24/39/4 4/7/4
f 26/45/5 6/9/5 5/8/5 7/10/5
f 7/10/6 5/8/6 8/12/6 10/14/6
f 2/4/7 23/38/7 9/13/7 8/12/7
f 10/14/8 8/12/8 9/13/8 11/16/8
f 10/15/9 11/17/9 13/20/9 7/11/9
f 11/16/10 9/13/10 19/30/10 12/19/10
f 11/17/11 12/18/11 15/24/11 13/20/11
f 13/20/12 15/24/12 16/26/12 14/21/12
f 7/11/13 13/20/13 14/21/13 26/44/13
f 15/25/14 17/28/14 18/29/14 16/27/14
f 12/19/15 19/30/15 17/28/15 15/25/15
f 20/31/16 21/34/16 18/29/16 17/28/16
f 22/36/17 20/31/17 17/28/17 19/30/17
f 4/7/18 24/39/18 21/33/18 20/32/18
f 23/37/19 4/7/19 20/32/19 22/35/19
f 23/38/20 22/36/20 19/30/20 9/13/20
f 21/34/21 24/40/21 25/42/21 18/29/21
f 24/41/22 3/6/22 6/9/22 25/43/22
f 16/27/23 18/29/23 25/42/23 14/22/23
f 14/23/24 25/43/24 6/9/24 26/45/24
f 46/78/25 43/75/25 36/63/25 34/59/25
f 29/50/26 27/46/26 34/59/26 36/64/26
f 31/53/27 28/48/27 35/60/27 38/68/27
f 33/56/28 32/54/28 39/70/28 40/72/28
f 30/52/29 33/57/29 40/71/29 37/66/29
f 41/73/30 29/51/30 36/65/30 43/75/30
f 32/55/31 31/53/31 38/68/31 39/69/31
f 27/47/32 30/52/32 37/66/32 34/58/32
f 28/49/33 42/74/33 44/76/33 35/61/33
f 42/74/34 41/73/34 43/75/34 44/76/34
f 45/77/35 44/76/35 43/75/35 46/78/35
f 38/68/36 35/62/36 44/76/36 45/77/36
f 39/70/37 38/68/37 45/77/37
f 39/70/38 45/77/38 46/78/38 40/72/38
f 46/78/39 34/59/39 37/67/39
f 40/72/40 46/78/40 37/67/40
f 57/97/41 47/80/41 49/84/41 54/94/41
f 29/50/42 49/85/42 47/80/42 27/46/42
f 31/53/43 51/89/43 48/81/43 28/48/43
f 33/56/44 53/93/44 52/91/44 32/54/44
f 30/52/45 50/87/45 53/92/45 33/57/45
f 41/73/46 54/94/46 49/86/46 29/51/46
f 32/55/47 52/90/47 51/89/47 31/53/47
f 27/47/48 47/79/48 50/87/48 30/52/48
f 28/49/49 48/82/49 55/95/49 42/74/49
f 42/74/50 55/95/50 54/94/50 41/73/50
f 56/96/51 57/97/51 54/94/51 55/95/51
f 51/89/52 56/96/52 55/95/52 48/83/52
f 52/91/53 56/96/53 51/89/53
f 52/91/54 53/93/54 57/97/54 56/96/54
f 57/97/55 50/88/55 47/80/55
f 53/93/56 50/88/56 57/97/56
f 66/98/1 67/101/1 73/109/1 70/105/1
f 67/100/2 66/99/2 69/104/2 88/134/2
f 68/103/3 66/98/3 70/105/3 71/106/3
f 66/99/4 68/102/4 89/136/4 69/104/4
f 91/142/5 71/106/5 70/105/5 72/107/5
f 72/107/6 70/105/6 73/109/6 75/111/6
f 67/101/7 88/135/7 74/110/7 73/109/7
f 75/111/8 73/109/8 74/110/8 76/113/8
f 75/112/9 76/114/9 78/117/9 72/108/9
f 76/113/10 74/110/10 84/127/10 77/116/10
f 76/114/11 77/115/11 80/121/11 78/117/11
f 78/117/12 80/121/12 81/123/12 79/118/12
f 72/108/13 78/117/13 79/118/13 91/141/13
f 80/122/14 82/125/14 83/126/14 81/124/14
f 77/116/15 84/127/15 82/125/15 80/122/15
f 85/128/16 86/131/16 83/126/16 82/125/16
f 87/133/17 85/128/17 82/125/17 84/127/17
f 69/104/18 89/136/18 86/130/18 85/129/18
f 88/134/19 69/104/19 85/129/19 87/132/19
f 88/135/20 87/133/20 84/127/20 74/110/20
f 86/131/21 89/137/21 90/139/21 83/126/21
f 89/138/22 68/103/22 71/106/22 90/140/22
f 81/124/23 83/126/23 90/139/23 79/119/23
f 79/120/24 90/140/24 71/106/24 91/142/24
f 92/143/1 93/146/1 99/154/1 96/150/1
f 93/145/2 92/144/2 95/149/2 114/179/2
f 94/148/3 92/143/3 96/150/3 97/151/3
f 92/144/4 94/147/4 115/181/4 95/149/4
f 117/187/5 97/151/5 96/150/5 98/152/5
f 98/152/6 96/150/6 99/154/6 101/156/6
f 93/146/7 114/180/7 100/155/7 99/154/7
f 101/156/8 99/154/8 100/155/8 102/158/8
f 101/157/9 102/159/9 104/162/9 98/153/9
f 102/158/10 100/155/10 110/172/10 103/161/10
f 102/159/11 103/160/11 106/166/11 104/162/11
f 104/162/12 106/166/12 107/168/12 105/163/12
f 98/153/13 104/162/13 105/163/13 117/186/13
f 106/167/14 108/170/14 109/171/14 107/169/14
f 103/161/15 110/172/15 108/170/15 106/167/15
f 111/173/16 112/176/16 109/171/16 108/170/16
f 113/178/17 111/173/17 108/170/17 110/172/17
f 95/149/18 115/181/18 112/175/18 111/174/18
f 114/179/19 95/149/19 111/174/19 113/177/19
f 114/180/20 113/178/20 110/172/20 100/155/20
f 112/176/21 115/182/21 116/184/21 109/171/21
f 115/183/22 94/148/22 97/151/22 116/185/22
f 107/169/23 109/171/23 116/184/23 105/164/23
f 105/165/24 116/185/24 97/151/24 117/187/24
f 118/188/1 119/191/1 125/199/1 122/195/1
f 119/190/2 118/189/2 121/194/2 140/224/2
f 120/193/3 118/188/3 122/195/3 123/196/3
f 118/189/4 120/192/4 141/226/4 121/194/4
f 143/232/5 123/196/5 122/195/5 124/197/5
f 124/197/6 122/195/6 125/199/6 127/201/6
f 119/191/7 140/225/7 126/200/7 125/199/7
f 127/201/8 125/199/8 126/200/8 128/203/8
f 127/202/9 128/204/9 130/207/9 124/198/9
f 128/203/10 126/200/10 136/217/10 129/206/10
f 128/204/11 129/205/11 132/211/11 130/207/11
f 130/207/12 132/211/12 133/213/12 131/208/12
f 124/198/13 130/207/13 131/208/13 143/231/13
f 132/212/14 134/215/14 135/216/14 133/214/14
f 129/206/15 136/217/15 134/215/15 132/212/15
f 137/218/16 138/221/16 135/216/16 134/215/16
f 139/223/17 137/218/17 134/215/17 136/217/17
f 121/194/18 141/226/18 138/220/18 137/219/18
f 140/224/19 121/194/19 137/219/19 139/222/19
f 140/225/20 139/223/20 136/217/20 126/200/20
f 138/221/21 141/227/21 142/229/21 135/216/21
f 141/228/22 120/193/22 123/196/22 142/230/22
f 133/214/23 135/216/23 142/229/23 131/209/23
f 131/210/24 142/230/24 123/196/24 143/232/24
l 59 58
l 62 63
l 61 60
l 64 65
