# Blender 3.2.0
# www.blender.org
o Plane.001
v -0.531686 0.323592 0.265843
v 0.531686 0.323592 0.265843
v -0.531686 0.323592 -0.265843
v 0.531686 0.323592 -0.265843
v -0.531686 2.051573 0.265843
v 0.531686 2.051573 0.265843
v -0.531686 2.051573 -0.265843
v 0.531686 2.051573 -0.265843
vn -0.0000 -1.0000 -0.0000
vn -1.0000 -0.0000 -0.0000
vn 1.0000 -0.0000 -0.0000
vn -0.0000 -0.0000 1.0000
vn -0.0000 -0.0000 -1.0000
vt 0.057692 0.637500
vt 0.096154 0.637500
vt 0.038462 0.637500
vt 0.115385 0.637500
vt 0.000000 0.637500
vt 0.057692 0.800000
vt 0.096154 0.800000
vt 0.057692 0.850000
vt 0.038462 0.800000
vt 0.096154 0.850000
vt 0.115385 0.800000
vt 0.000000 0.800000
s 0
f 5/6/1 7/8/1 8/10/1 6/7/1
f 2/2/2 6/7/2 8/11/2 4/4/2
f 3/3/3 7/9/3 5/6/3 1/1/3
f 4/5/4 8/12/4 7/9/4 3/3/4
f 1/1/5 5/6/5 6/7/5 2/2/5
